<?xml version="1.0" encoding="utf-8"?>
<!DOCTYPE svg PUBLIC "-//W3C//DTD SVG 1.0//EN" "http://www.w3.org/TR/2001/REC-SVG-20010904/DTD/svg10.dtd">
<svg version="1.0" xmlns="http://www.w3.org/2000/svg" width="280px" height="280px" viewBox="0 0 280 280" preserveAspectRatio="xMidYMid meet">
 <g fill="#0057af">
  <path d="M213.6 97.4 c-1.2 -3 -0.6 -7.1 1.2 -8.7 1 -0.9 4 -2 6.5 -2.3 4.5 -0.6 4.7 -0.8 4.7 -4 0 -3.2 0.1 -3.3 5.6 -4 3.7 -0.4 5.9 -0.3 6.7 0.5 0.6 0.6 1.9 1.1 2.9 1.1 1.5 0 1.8 0.8 1.8 4.5 0 3.7 -0.3 4.5 -1.9 4.5 -1 0 -2.4 0.7 -3.1 1.5 -0.7 0.8 -2.6 1.5 -4.3 1.5 -2.2 0 -3.8 0.9 -6 3.5 -2.7 3.2 -3.4 3.5 -8.2 3.5 -3.9 0 -5.4 -0.4 -5.9 -1.6z"/>
 </g>
 <g fill="#0159ae">
  <path d="M203.2 113.7 c-0.7 -0.8 -2.3 -1.8 -3.6 -2.1 -2.3 -0.6 -8 -8 -7.4 -9.6 0.5 -1.4 33 -22 34.7 -22 0.9 0 2.7 -1.4 4 -3 1.7 -2.2 3.2 -3 5.5 -3 3.6 0 3.8 0.2 10.2 13.1 5.3 10.6 5.3 13.9 -0.1 13.9 -2.2 0 -4.3 0.9 -6.4 2.9 -2.1 1.9 -4.5 3.1 -7.3 3.4 -6.9 0.8 -10.2 1.8 -11.5 3.4 -1.2 1.5 -6 2.9 -13.4 4 -2.4 0.3 -3.9 0 -4.7 -1z m21.1 -20.7 c2.9 -3.2 2.2 -4.4 -2 -3.4 -3.7 0.9 -6.3 3.2 -5.6 5 0.9 2.4 4.8 1.6 7.6 -1.6z m14 -7 c0.9 0 1.7 -0.7 1.7 -1.5 0 -0.8 -0.9 -1.5 -1.9 -1.5 -1.1 0 -2.2 -0.4 -2.5 -0.8 -0.8 -1.3 -6.6 -0.2 -6.6 1.2 0 0.7 0.9 2.2 2.1 3.5 1.9 2 2.2 2.1 3.8 0.7 1 -0.9 2.5 -1.6 3.4 -1.6z"/>
 </g>
 <g fill="#035ead">
  <path d="M207.6 126.5 c-0.3 -0.8 -1.6 -1.5 -3 -1.5 -2.1 0 -2.7 -0.8 -4.2 -5.6 -0.9 -3 -3.2 -8 -5.1 -11.1 -1.8 -3 -3.3 -5.7 -3.3 -5.9 0 -0.2 1.5 -0.4 3.3 -0.4 2.7 0.1 2.9 0.2 1.4 1.1 -2.4 1.4 -0.8 3.4 4.1 5 2 0.6 4.4 1.7 5.2 2.5 1 0.9 2 1 3 0.4 0.8 -0.5 2.7 -1 4.3 -1 1.6 0 3.5 -1 4.8 -2.4 1.3 -1.4 2.8 -2.2 3.9 -1.9 1 0.3 2.7 -0.4 3.9 -1.6 1.7 -1.7 2.5 -1.9 4.5 -1 2 1 3 0.8 5.5 -1 1.7 -1.2 3.1 -3.1 3.1 -4.1 0 -2.7 1.8 -3.5 3.9 -1.6 1 0.9 2.2 1.6 2.8 1.6 1.4 0 2.4 -3.8 1.2 -4.6 -1.2 -0.7 -1.1 -3.4 0.2 -3.4 1.2 0 5.6 9.7 6.4 14.1 0.3 1.8 1 4 1.5 5 2.7 5 -1 10.9 -6.8 10.9 -1.8 0 -3.2 0.5 -3.2 1 0 0.6 -2.2 1 -4.9 1 -3 0 -5.3 0.5 -6.1 1.4 -0.7 0.9 -4 1.8 -8.1 2.2 -3.8 0.4 -7.2 1.1 -7.5 1.5 -0.9 1.6 -10.1 1.1 -10.8 -0.6z"/>
  <path d="M227 81.3 c0 -2.6 2.4 -5.2 4.9 -5.3 0.7 0 2.2 -1 3.2 -2.1 2.1 -2.5 3.3 -1.9 6.2 3 2.1 3.5 0.7 4.2 -3 1.6 -2 -1.4 -2.3 -1.4 -3.5 0.3 -0.7 1 -2.8 2.6 -4.5 3.4 -3.3 1.6 -3.3 1.6 -3.3 -0.9z"/>
 </g>
 <g fill="#0462ac">
  <path d="M242.8 160.8 c-2.1 -0.6 -3.8 -1.6 -3.8 -2.4 0 -1.5 -2.3 -1.8 -10.3 -1.4 -3.7 0.1 -5.2 -0.2 -6.2 -1.7 -1 -1.2 -1.4 -1.4 -1.5 -0.4 0 1.8 -15.8 1.1 -16.9 -0.8 -0.5 -0.7 -0.6 -5.5 -0.3 -10.7 0.3 -6.9 0 -11.3 -1.2 -16.5 -1 -3.9 -1.6 -7.3 -1.3 -7.5 0.7 -0.7 3.7 0.7 3.7 1.7 0 0.5 1.1 0.9 2.5 0.9 1.4 0 2.8 0.7 3.1 1.5 0.9 2.2 4.1 1.8 5.8 -0.7 1.4 -1.9 1.8 -2 4 -0.8 2.1 1 2.8 1.1 4.1 0 0.8 -0.7 2.4 -1 3.5 -0.7 1.3 0.3 2.5 -0.2 3.4 -1.4 1.4 -2.1 3.4 -2.4 7.9 -1.3 2.5 0.6 2.7 0.4 2.7 -2.7 0 -3.2 0 -3.2 2.3 -1.1 2.9 2.7 3.5 2.7 6.3 0.1 2 -1.8 2 -2.3 0.9 -4.7 -2.1 -4.3 -2.3 -8.6 -0.3 -9 3.5 -0.7 7.8 20.9 7.8 39 0 14.3 -0.5 17.8 -2.5 17.8 -0.7 0 -1.5 0.9 -1.8 2 -0.4 1.6 -1.3 2 -4.4 1.9 -2.1 -0.1 -5.5 -0.6 -7.5 -1.1z"/>
  <path d="M199.1 115.4 c0 -1.1 0.3 -1.4 0.6 -0.6 0.3 0.7 0.2 1.6 -0.1 1.9 -0.3 0.4 -0.6 -0.2 -0.5 -1.3z"/>
  <path d="M249.5 98.9 c-0.4 -0.6 -0.5 -1.3 -0.2 -1.6 0.7 -0.7 2.7 0.6 2.7 1.8 0 1.2 -1.7 1.2 -2.5 -0.2z"/>
  <path d="M235 75.3 c0 -1.9 0.5 -2.4 2 -2.1 1.2 0.2 2 0.7 2 1.2 -0.1 0.5 0.4 1.2 1 1.6 0.7 0.4 0 0.9 -1.9 1.2 -2.7 0.4 -3.1 0.2 -3.1 -1.9z"/>
 </g>
 <g fill="#0565aa">
  <path d="M240.3 179.3 c-2 -0.3 -3.3 -1 -3.3 -1.9 0 -1 -1.2 -1.4 -3.9 -1.4 -2.2 0 -4.3 -0.4 -4.6 -1 -0.3 -0.5 -1.7 -1 -3.1 -1 -1.5 0 -2.4 -0.6 -2.4 -1.5 0 -1.1 -1.2 -1.5 -4.5 -1.5 -3.2 0 -4.5 -0.4 -4.5 -1.4 0 -1.6 -2.1 -2.6 -5.3 -2.6 -1.2 0 -3.6 -0.9 -5.3 -1.9 -3.1 -1.9 -3.1 -1.9 -1.5 -8.9 0.8 -3.9 1.9 -6.8 2.4 -6.5 0.4 0.2 1.4 0 2.2 -0.7 1.1 -0.9 1.2 -0.7 0.8 0.8 -0.4 1.5 0.2 2.1 2.7 2.6 4.6 0.9 8 0.8 8 -0.3 0 -0.5 1.3 -1.6 2.8 -2.4 2.7 -1.3 2.9 -1.3 4.1 1.5 1.5 3.3 2.4 3.5 5.9 0.8 2.5 -2 2.5 -2 4.7 0 1.2 1.1 3.1 2 4.3 2 1.2 0 2.2 0.6 2.2 1.4 0 1.4 7.7 3.9 9.2 3 0.4 -0.3 0.8 -1.5 0.8 -2.8 0 -3.1 0.8 -3.6 3.6 -2.4 1.7 0.8 2.4 1.9 2.4 3.8 0 4.1 -3.1 17 -4 17 -0.5 0 -1 1.2 -1.2 2.8 -0.3 2.5 -0.7 2.7 -4.8 2.8 -2.5 0.1 -6 -0.1 -7.7 -0.3z"/>
  <path d="M213 148.5 c0 -0.3 0.2 -0.5 0.5 -0.5 0.3 0 0.5 0.2 0.5 0.5 0 0.3 -0.2 0.5 -0.5 0.5 -0.3 0 -0.5 -0.2 -0.5 -0.5z"/>
  <path d="M201.8 124 c-0.7 -2.4 -0.3 -3.8 0.8 -2.8 0.3 0.4 0.4 1.7 0.2 3 -0.3 2.3 -0.3 2.3 -1 -0.2z"/>
  <path d="M252.7 111.3 c-1.2 -1.1 -0.7 -3.3 0.7 -3.3 1.2 0 2.6 2 2.6 3.6 0 0.7 -2.6 0.5 -3.3 -0.3z"/>
 </g>
 <g fill="#0769a9">
  <path d="M236 190 c0 -0.9 -3.8 -2.1 -11.5 -3.7 -2.7 -0.6 -4.4 -1.6 -5.2 -3.3 -1.3 -2.7 -3.8 -3.7 -9 -3.9 -2.1 -0.1 -3.8 -0.9 -5.1 -2.6 -1.1 -1.4 -3.4 -2.8 -5.1 -3.1 -3.7 -0.8 -3.9 -2.5 -1.1 -8.6 1.1 -2.4 2.5 -6.3 3.1 -8.8 0.9 -3.8 1.2 -4.2 2.1 -2.5 0.8 1.3 0.7 2.4 -0.2 3.8 -1.1 1.8 -0.9 2.3 1 3.9 1.2 1 3.3 2 4.6 2.3 1.3 0.3 3.5 0.7 4.9 1 1.4 0.3 2.5 1.2 2.5 2.2 0 1.3 0.8 1.5 4.4 1 3.9 -0.6 4.8 -0.3 7.8 2.3 3.5 3.2 4.8 3.7 4.8 1.9 0 -0.6 0.7 -0.9 1.5 -0.6 0.8 0.4 1.7 0.2 2.1 -0.4 1 -1.6 3.5 1.1 2.9 3.2 -0.5 1.4 -0.1 1.6 1.5 1.2 1.1 -0.3 2.7 0 3.5 0.7 2.3 1.9 4.3 0.6 3.8 -2.4 -0.5 -2.3 -0.2 -2.6 2.6 -2.6 1.7 0 3.1 0.3 3.1 0.8 0 0.4 -1.2 4.1 -2.6 8.2 -2 5.9 -3.2 7.9 -5.6 9.3 -3.2 1.8 -10.8 2.3 -10.8 0.7z m-9 -19.5 c0 -0.3 -0.2 -0.5 -0.5 -0.5 -0.3 0 -0.5 0.2 -0.5 0.5 0 0.3 0.2 0.5 0.5 0.5 0.3 0 0.5 -0.2 0.5 -0.5z"/>
  <path d="M247.5 174.9 c-0.4 -0.6 -0.5 -1.2 -0.2 -1.5 0.2 -0.3 0.7 0.2 1 1.1 0.7 1.7 0.1 2 -0.8 0.4z"/>
  <path d="M254 161.6 c0 -1 0.9 -1.6 2.1 -1.6 2.4 0 2.1 2.3 -0.4 2.8 -1 0.2 -1.7 -0.3 -1.7 -1.2z"/>
  <path d="M253 110 c0 -0.5 0.4 -1 0.9 -1 0.6 0 1.3 0.5 1.6 1 0.3 0.6 -0.1 1 -0.9 1 -0.9 0 -1.6 -0.4 -1.6 -1z"/>
 </g>
 <g fill="#076ca8">
  <path d="M236 198 c-1.4 -0.4 -4.2 -0.8 -6.2 -0.9 -3.1 -0.1 -3.8 -0.5 -3.8 -2.1 0 -1.6 -0.7 -2 -3.4 -2 -1.9 0 -4.1 -0.7 -5 -1.5 -0.8 -0.8 -2.4 -1.5 -3.6 -1.5 -2.5 0 -12 -6 -12 -7.5 0 -0.6 -1.6 -1.7 -3.4 -2.3 -1.9 -0.7 -3.7 -2.1 -4 -3 -0.3 -0.9 1.2 -5.3 3.4 -9.7 2.9 -6 3.7 -7.1 3.3 -4.5 -0.3 1.9 -1 3.7 -1.4 4 -1.3 0.9 0.5 2.7 3.5 3.4 1.6 0.4 3.8 1.9 4.9 3.2 1.5 2 2.7 2.5 4.9 2.2 1.6 -0.3 3.1 -0.1 3.4 0.4 0.3 0.4 1.4 0.8 2.4 0.8 1.1 0 2.5 1.2 3.2 2.7 1.3 2.7 2.9 3.3 11 4.7 2.1 0.4 4.5 1.4 5.3 2.3 1.5 1.4 1.9 1.4 4.8 -0.2 1.8 -0.9 3.9 -3.1 4.7 -4.9 0.8 -1.7 2.3 -3.3 3.3 -3.4 2.4 -0.5 1.9 1.4 -3.3 12.6 -4.2 8.8 -5.2 9.4 -12 7.2z"/>
 </g>
 <g fill="#096ea8">
  <path d="M227.6 206.5 c-0.5 -2 -1.3 -2.5 -3.6 -2.5 -1.8 0 -3.1 -0.6 -3.4 -1.7 -0.6 -1.9 -5.8 -5.3 -8 -5.3 -0.7 0 -2.3 -1.1 -3.5 -2.4 -1.3 -1.4 -3.3 -2.6 -4.5 -2.8 -1.1 -0.2 -2.7 -1.5 -3.4 -3 -0.7 -1.6 -1.8 -2.8 -2.4 -2.8 -1.5 0 -7.8 -4.9 -7.8 -6.1 0 -0.5 1.4 -2.8 3 -5.1 1.7 -2.2 3 -3.4 3 -2.6 0 0.8 1.2 1.9 2.8 2.6 2.5 1 2.5 1.1 0.2 0.6 -2.5 -0.5 -2.5 -0.5 0 1 1.4 0.9 3.3 1.5 4.4 1.6 1.1 0 1.6 0.5 1.3 1.3 -0.7 2 8.8 8 11.3 7.2 1.3 -0.4 2.2 -0.1 2.6 0.9 0.3 0.8 1.2 1.7 1.9 2 1 0.3 1.2 0 0.8 -1.1 -0.5 -1.3 -0.2 -1.5 1.1 -1 1 0.4 2.6 0.7 3.7 0.7 1.2 0 1.9 0.7 1.9 2 0 1.1 0.6 2 1.3 2 0.8 0 0.7 0.4 -0.3 1 -1.2 0.8 -1 1 0.8 1 1.3 0 2 -0.4 1.7 -1 -0.9 -1.4 0.7 -1.2 2.9 0.5 1 0.8 2.3 1.2 2.8 0.9 0.5 -0.3 1.5 -0.1 2.2 0.5 1.1 0.9 1.4 0.8 1.2 -0.6 -0.1 -1.3 0.5 -1.7 1.9 -1.5 1.1 0.2 2.2 0.6 2.4 0.8 0.8 0.7 -2.3 6.6 -5 9.5 -1.6 1.7 -2.9 3.5 -2.9 3.9 0 1.2 -2.7 2 -6.5 2 -2.7 0 -3.4 -0.5 -3.9 -2.5z"/>
  <path d="M197 168.5 c0 -0.3 0.2 -0.5 0.5 -0.5 0.3 0 0.5 0.2 0.5 0.5 0 0.3 -0.2 0.5 -0.5 0.5 -0.3 0 -0.5 -0.2 -0.5 -0.5z"/>
 </g>
 <g fill="#0a71a6">
  <path d="M217.6 218.5 c-1.5 -1.4 -3.4 -2.5 -4.2 -2.5 -2.2 0 -8.4 -5.2 -8.4 -7.1 0 -2 -3.1 -4.9 -5.3 -4.9 -0.9 0 -1.7 -0.3 -1.7 -0.8 0 -0.4 -1 -1.2 -2.2 -1.7 -1.2 -0.6 -3.3 -3.2 -4.6 -5.8 -1.3 -2.7 -3 -5.1 -3.8 -5.4 -2.4 -0.9 -1.6 -4.8 2.1 -9.6 3.4 -4.5 3.4 -4.5 7 -1.1 2 1.9 4.3 3.4 5 3.4 0.8 0 2 1.2 2.7 2.7 0.7 1.6 2.3 2.9 3.4 3.1 1.2 0.2 3.2 1.4 4.5 2.8 1.2 1.3 2.8 2.4 3.5 2.4 2.2 0 7.4 3.4 8 5.3 0.3 1.1 1.6 1.7 3.4 1.7 2.3 0 3.1 0.5 3.6 2.6 0.4 1.7 1.1 2.3 2.1 2 0.8 -0.3 1.7 -0.6 1.9 -0.6 0.2 0 0.4 -0.6 0.4 -1.3 0 -0.8 1.1 -1.9 2.5 -2.5 3.4 -1.5 3.5 -1.5 3.5 0.6 -0.1 2.3 -3.9 8.3 -9.1 14.3 -3.7 4.2 -4.8 4.9 -7.9 4.9 -2.6 0 -4.5 -0.8 -6.4 -2.5z"/>
  <path d="M194.5 174 c0.3 -0.5 0.8 -1 1.1 -1 0.2 0 0.4 0.5 0.4 1 0 0.6 -0.5 1 -1.1 1 -0.5 0 -0.7 -0.4 -0.4 -1z"/>
 </g>
 <g fill="#0b76a5">
  <path d="M197.2 241.1 c-0.7 -0.4 -1.6 -2.1 -2.1 -3.6 -0.6 -2.4 -1.5 -3.1 -5.3 -4.1 -6 -1.5 -6.8 -2.1 -6.8 -4.9 0 -1.3 -0.4 -2.6 -0.9 -2.9 -0.5 -0.3 -1.2 -3 -1.5 -6 -0.8 -5.7 -1.5 -6.7 -6.9 -9.6 -2.4 -1.3 -3.3 -2.5 -3.5 -5 -0.5 -5.1 1.5 -8.5 8.1 -13.6 3.4 -2.7 7.4 -6.2 8.9 -7.8 2.9 -3.3 4.8 -3.1 2.7 0.2 -1 1.6 -0.9 2.3 1 4.3 1.2 1.3 3 3.9 3.9 5.8 0.8 1.9 3.5 4.8 5.9 6.4 2.4 1.7 4.3 3.9 4.3 4.9 0 1 0.6 1.8 1.3 1.8 0.7 0 2.8 1.3 4.7 3 1.9 1.6 4.3 2.9 5.3 3 0.9 0 1.7 0.4 1.7 0.8 0 0.5 1.1 1.4 2.4 2 1.7 0.8 2.5 2.1 2.9 4.9 0.4 3.3 0 4.3 -3.2 7.6 -4.6 4.9 -17.4 13.7 -19.8 13.7 -1 0 -2.4 -0.4 -3.1 -0.9z"/>
  <path d="M227.3 219.3 c-2.1 -0.8 -1.5 -3.2 1.5 -5.8 2.6 -2.4 6.2 -3.3 6.2 -1.7 0 1.7 -6.5 8 -7.7 7.5z"/>
 </g>
 <g fill="#0c79a4">
  <path d="M181.6 251.3 c-0.3 -0.4 -2.8 -0.6 -5.6 -0.4 -3.8 0.1 -5.4 -0.3 -7.4 -2 -2.7 -2.3 -4.6 -9 -4.6 -15.9 0 -3.2 -0.4 -4 -1.9 -4 -1.4 0 -2 -1 -2.5 -4.6 -1 -7.3 -0.7 -23.4 0.4 -23.4 0.5 0 4.2 -1.5 8.1 -3.4 7.7 -3.7 7.5 -3.9 5.7 5.8 -0.2 1.2 0.8 2.4 2.9 3.6 5.4 2.9 6.1 3.9 6.8 9.5 0.4 3 1.3 5.9 2 6.5 0.7 0.6 1.1 1.9 0.8 2.9 -0.6 2.2 0.5 3 6.5 4.5 3.8 1 4.7 1.7 5.3 4.1 1.1 3.9 4.9 6.3 4.9 3 0 -0.8 0.9 -1.5 2 -1.5 1.1 0 2 0.6 2 1.4 0 2.8 -23.6 15.7 -25.4 13.9z"/>
  <path d="M177 192.5 c0 -0.3 0.2 -0.5 0.5 -0.5 0.3 0 0.5 0.2 0.5 0.5 0 0.3 -0.2 0.5 -0.5 0.5 -0.3 0 -0.5 -0.2 -0.5 -0.5z"/>
 </g>
 <g fill="#0e7ea3">
  <path d="M151.6 254.8 c-0.9 -1.7 -1.6 -4.5 -1.6 -6.2 0 -4 -1.8 -18.8 -3 -24.6 -0.5 -2.5 -1.2 -7.9 -1.6 -12.2 -0.6 -7.6 -0.6 -7.6 4.7 -8.5 5.4 -0.8 5.4 -0.8 6.1 2.1 0.3 1.6 1.2 3.2 1.9 3.7 1.7 1 3.8 9.3 3.9 15.1 0 2.8 0.6 5.3 1.5 6.2 0.8 0.8 1.5 3.2 1.5 5.5 0 2.3 0.5 4.1 1 4.1 0.6 0 1 1.4 1 3.1 0 1.7 0.7 3.7 1.5 4.5 0.8 0.9 1.5 3 1.5 4.8 0 3.1 -0.3 3.3 -5.1 4.4 -8.8 2.1 -11.5 1.7 -13.3 -2z"/>
 </g>
 <g fill="#1572a9">
  <path d="M237.3 206.3 c-1.9 -0.7 -1.6 -3.4 0.5 -4.9 2.2 -1.7 4.2 -1.8 4.2 -0.1 -0.1 2 -3.4 5.5 -4.7 5z"/>
  <path d="M194 174.6 c0 -0.2 0.7 -0.9 1.5 -1.6 1.3 -1.1 1.4 -1 0.9 0.4 -0.5 1.4 -2.4 2.3 -2.4 1.2z"/>
 </g>
 <g fill="#117ca4">
  <path d="M167 254 c0 -1 -0.9 -2.8 -2.1 -3.9 -1.5 -1.3 -1.9 -2.6 -1.4 -4.1 0.5 -1.5 0 -2.6 -1.9 -4.1 -3 -2.4 -3.2 -3.2 -0.9 -5.4 1 -1 1.2 -1.9 0.6 -2.3 -2 -1.4 -3.1 -4.6 -2.6 -8.2 0.3 -2.4 -0.1 -5 -1.2 -7.3 -0.9 -2 -1.4 -4 -1.1 -4.5 0.3 -0.5 -0.4 -1.6 -1.5 -2.5 -1.2 -1.1 -1.9 -2.9 -1.9 -5.1 0 -2.9 0.4 -3.6 3.1 -4.5 1.8 -0.6 3.7 -1.1 4.3 -1.1 1.3 0 3.6 8.9 2.5 9.5 -0.6 0.4 -0.6 2.4 -0.1 12.8 0.2 2.2 0.7 2.7 2.7 2.7 3.2 0 4.9 2.9 2.8 5.2 -1.2 1.4 -1.3 2.5 -0.3 7.1 1.4 7.1 4.3 9.7 9.8 9 3.7 -0.5 8.2 0.9 8.2 2.5 0 0.8 -15.6 6.2 -17.8 6.2 -0.7 0 -1.2 -0.9 -1.2 -2z"/>
  <path d="M187.7 248.4 c-1 -1.1 0.3 -2.4 2.4 -2.4 2.3 0 2.5 1.5 0.3 2.4 -1.9 0.7 -1.9 0.7 -2.7 0z"/>
  <path d="M194 243.5 c0 -0.3 0.2 -0.5 0.5 -0.5 0.3 0 0.5 0.2 0.5 0.5 0 0.3 -0.2 0.5 -0.5 0.5 -0.3 0 -0.5 -0.2 -0.5 -0.5z"/>
  <path d="M150 212 c0 -0.7 0.3 -1 0.7 -0.7 0.3 0.4 0.3 1 0 1.4 -0.4 0.3 -0.7 0 -0.7 -0.7z"/>
  <path d="M150 203.5 c0 -0.3 0.2 -0.5 0.5 -0.5 0.3 0 0.5 0.2 0.5 0.5 0 0.3 -0.2 0.5 -0.5 0.5 -0.3 0 -0.5 -0.2 -0.5 -0.5z"/>
  <path d="M166.4 198.5 c2.7 -2.1 5.3 -2 3.6 0 -0.7 0.8 -2.2 1.5 -3.4 1.5 -2.1 -0.1 -2.1 -0.1 -0.2 -1.5z"/>
 </g>
 <g fill="#0f80a2">
  <path d="M142.5 258 c-1.1 -1.8 -1.8 -13.7 -0.8 -14.3 1.3 -0.8 0.4 -6.7 -1.1 -6.7 -0.9 0 -1.2 -4.4 -1.1 -15.9 0 -8.8 0.2 -16.1 0.5 -16.4 0.3 -0.2 2.9 -0.7 5.9 -0.9 4.5 -0.5 5.2 -0.3 3.8 0.7 -2.1 1.5 -2.2 3.9 -0.1 6 1.3 1.2 1.4 1.9 0.4 3 -1.5 1.8 -0.5 7.8 1.5 9.5 1.7 1.4 2 5.7 0.5 6.2 -0.6 0.2 -0.6 2.6 0.2 6.8 0.6 3.6 1.1 7.9 1 9.5 -0.3 4.8 2.3 9.2 5.8 9.8 1.6 0.4 3 1.1 3 1.5 0 1.9 -18.4 3.1 -19.5 1.2z"/>
 </g>
 <g fill="#1576a7">
  <path d="M217 229 c-0.8 -0.5 -1.2 -1.1 -0.9 -1.4 0.2 -0.3 1.1 -0.1 1.9 0.4 0.8 0.5 1.2 1.1 0.9 1.4 -0.2 0.3 -1.1 0.1 -1.9 -0.4z"/>
  <path d="M220.4 226.2 c-0.6 -0.4 -1.7 -2.1 -2.6 -3.8 -1.5 -3 -1.4 -3.1 0.6 -2.7 1.8 0.3 1.7 0.1 -0.4 -0.9 -3.8 -2 -6.1 -4.1 -7.1 -6.5 -1.2 -3.1 -4.7 -3 -5.5 0.1 -0.3 1.3 -1.5 2.6 -2.6 2.9 -1.4 0.4 -1.8 0.2 -1.4 -0.9 0.3 -0.8 0.1 -1.4 -0.4 -1.4 -0.6 0 -1 0.7 -1 1.5 0 0.8 -0.7 1.5 -1.5 1.5 -0.8 0 -1.5 -0.2 -1.5 -0.4 0 -1.5 2.6 -7.3 3.7 -8.1 1 -0.8 0.2 -1.8 -3.4 -4.6 -4.2 -3 -4.8 -3.9 -4.5 -6.7 0.2 -2.6 -0.2 -3.2 -1.8 -3.2 -1.1 0 -2.7 -1.1 -3.6 -2.6 -0.9 -1.4 -2.3 -2.3 -3 -2 -1.8 0.7 -1.8 -0.2 0 -2 1.9 -1.8 3 -1.8 2.2 0.1 -0.3 0.8 -0.1 1.5 0.5 1.5 0.6 0 0.9 -1 0.7 -2.3 -0.3 -2.5 2.7 -7.5 3.9 -6.3 0.4 0.4 0.2 1.5 -0.5 2.4 -2.3 3.2 -2.4 4.3 -0.7 5.6 0.9 0.6 2.7 3.2 3.9 5.7 1.2 2.4 3.2 4.8 4.4 5.4 1.2 0.5 2.2 1.3 2.2 1.7 0 0.5 0.8 0.8 1.8 0.8 2.2 0 5.2 3 5.2 5.1 0 1.7 6.3 6.9 8.4 6.9 0.8 0 2.7 1.1 4.2 2.5 2.8 2.6 5.4 3.3 5.4 1.5 0 -1.6 5.3 -5.9 7.3 -6 0.9 0 1.7 0.4 1.7 0.9 0 0.5 -1 0.7 -2.2 0.4 -1.7 -0.3 -1.9 -0.2 -1 0.5 1.1 0.7 0.8 1.1 -1 1.6 -1.9 0.5 -2 0.8 -0.8 1.6 1.2 0.8 0.6 1.8 -3.5 5.9 -2.8 2.9 -5.5 4.7 -6.1 4.3z"/>
  <path d="M237.1 206.1 c-1.2 -0.8 -1.2 -1.2 -0.2 -2.5 1.4 -1.7 4.1 -2.2 4.1 -0.8 0 2 -2.6 4.1 -3.9 3.3z"/>
 </g>
 <g fill="#1082a1">
  <path d="M131.1 255.2 c0.2 -2.1 0 -4.2 -0.4 -4.9 -0.4 -0.6 -1 -4.3 -1.3 -8.2 -0.6 -6.2 -0.5 -7.1 1 -7.1 1.4 0 1.6 -1.3 1.6 -9.2 0 -5 0.5 -12 1.1 -15.5 1.1 -6.3 1.1 -6.3 5.4 -6.3 5 0 6.3 1.2 4.5 4.5 -0.7 1.3 -0.9 3.2 -0.5 4.2 1.1 2.6 1.4 19.3 0.4 19.3 -0.5 0 -0.9 0.4 -0.9 1 0 0.5 0.3 0.9 0.8 0.9 2.7 -0.4 4.2 0.3 4.2 2.2 0 1.1 -0.4 1.7 -1 1.4 -1.3 -0.8 -1.3 -0.5 0.1 3.4 0.9 2.6 0.8 3.5 -0.5 5 -1.4 1.5 -1.5 2.6 -0.7 6.2 1.7 7.1 1.9 6.9 -6.5 6.9 -7.6 0 -7.6 0 -7.3 -3.8z"/>
 </g>
 <g fill="#1185a0">
  <path d="M124.5 258.5 c-0.5 -0.2 -2.7 -0.6 -4.7 -1 -3.4 -0.5 -3.8 -0.9 -3.8 -3.5 0 -3.2 1.9 -8.1 3.5 -9.2 0.7 -0.5 0.6 -1.4 -0.2 -2.8 -1.7 -2.7 -1.6 -9.5 0.1 -10.9 1.5 -1.3 2.4 -6.4 3.2 -18.6 0.3 -4.4 1 -8.5 1.4 -9.1 0.7 -0.7 2.8 -0.7 7 0 6.1 1 6.1 1 5.6 6.5 -0.2 3.1 -0.7 6.3 -1 7.1 -0.4 0.9 -0.5 5.8 -0.2 10.9 0.3 8.5 0.2 9.4 -1.5 9.8 -1.6 0.5 -1.8 1.2 -1.3 4.7 0.4 2.2 1.3 4.8 2.1 5.7 1.1 1.4 1.2 2.4 0.1 6.3 -1.2 4.5 -1.3 4.6 -5.3 4.5 -2.2 0 -4.4 -0.2 -5 -0.4z"/>
 </g>
 <g fill="#1288a0">
  <path d="M124.1 257.1 c-0.9 -1.6 -0.8 -1.8 0.9 -1.4 1.1 0.3 2 1.2 2 1.9 0 2 -1.8 1.7 -2.9 -0.5z"/>
  <path d="M115.6 256.9 c-2.1 -0.5 -4.5 -1.7 -5.2 -2.7 -1.8 -2.3 -1.7 -13 0.1 -16.2 0.8 -1.4 1.4 -4.4 1.5 -6.8 0 -2.4 0.7 -5.7 1.6 -7.3 0.8 -1.7 1.8 -5.3 2.1 -8.2 0.6 -6.2 3.1 -12.4 5.1 -13.2 0.9 -0.3 3.5 -0.3 5.9 0.1 4.3 0.6 4.3 0.6 1.8 2.6 -2 1.5 -2.3 2.3 -1.5 4.2 0.5 1.3 0.5 2.7 0 3.2 -0.9 0.9 -2 9 -2.2 15.9 -0.1 2.6 -0.8 4.5 -2 5.3 -2.2 1.6 -2.3 3.5 -0.4 5.1 1.4 1.2 1.2 7.9 -0.3 9.1 -1.5 1.2 -3 6 -2.1 6.5 1.2 0.7 1.3 3.5 0.3 3.4 -0.5 -0.1 -2.6 -0.5 -4.7 -1z"/>
 </g>
 <g fill="#1a7aa6">
  <path d="M203.7 239.3 c-1.7 -1.6 -0.5 -3.3 2.3 -3.3 3.4 0 3.8 0.7 1.3 2.6 -2.1 1.5 -2.7 1.7 -3.6 0.7z"/>
  <path d="M211.8 233.3 c-1.6 -0.4 -1.6 -0.7 0.4 -3.4 2.3 -3.1 3.4 -3.4 5.7 -2 1.2 0.8 1.3 1.2 0.1 2.6 -1.8 2.2 -4.2 3.2 -6.2 2.8z"/>
  <path d="M183.9 186.9 c1.2 -1.2 2.5 -1.8 2.9 -1.4 0.4 0.4 -0.2 1.3 -1.2 2.1 -3 2.2 -4.3 1.7 -1.7 -0.7z"/>
 </g>
 <g fill="#138a9f">
  <path d="M115 256 c0 -0.5 -0.6 -0.7 -1.4 -0.4 -0.8 0.3 -4.6 -0.4 -8.5 -1.6 -7.1 -2.1 -7.1 -2.1 -7.1 -7.9 0 -3.3 0.7 -7.1 1.5 -8.7 0.8 -1.6 1.5 -3.9 1.5 -5 0 -1.2 0.6 -2.4 1.4 -2.7 1.5 -0.6 3.4 -7.2 4.3 -14.4 0.3 -2.3 1.1 -4.7 1.9 -5.4 0.8 -0.6 1.4 -2 1.4 -3.1 0 -1 0.7 -2.1 1.5 -2.4 0.8 -0.4 1.5 -1.7 1.5 -3 0 -2.9 -0.1 -2.9 7.4 -0.5 5.9 1.8 5.9 1.8 3.8 3.9 -3.2 3.2 -5.1 8.2 -5.4 14.4 -0.2 3.2 -0.6 5.8 -0.9 5.8 -1.4 0 -3.1 6.2 -2.5 9 0.4 2.1 -0.1 4 -1.4 6.3 -3.4 5.5 -1.9 12.2 3.3 14 2.3 0.9 2.2 2.7 -0.3 2.7 -1.1 0 -2 -0.4 -2 -1z"/>
 </g>
 <g fill="#148d9e">
  <path d="M93.8 249.8 c-6.7 -3 -6.8 -3.1 -6.8 -6.9 0 -2.6 0.4 -3.9 1.4 -3.9 0.8 0 1.6 -1.6 2 -4 0.3 -2.1 1.7 -5 3 -6.3 2.4 -2.4 7.6 -12.4 7.6 -14.6 0 -1.2 3.7 -9.9 6.4 -15.1 1.5 -2.8 1.1 -2.8 8.8 0.2 6.1 2.4 7.8 4.4 2.8 3.3 -2.7 -0.6 -3 -0.4 -3 1.8 0 1.4 -0.7 2.7 -1.5 3.1 -0.8 0.3 -1.5 1.4 -1.5 2.4 0 1.1 -0.7 2.5 -1.6 3.3 -1.1 0.9 -1.4 2.2 -1 4.2 0.3 1.6 0 3.7 -0.8 5 -0.8 1.2 -1.7 3.9 -2 6 -0.4 2.1 -1.4 4.1 -2.2 4.4 -0.7 0.3 -1.4 1.5 -1.4 2.7 0 1.1 -0.6 3.2 -1.3 4.6 -0.8 1.4 -1.4 4.8 -1.5 7.5 -0.1 2.7 -0.3 5 -0.5 5.1 -0.1 0.1 -3.2 -1.2 -6.9 -2.8z"/>
 </g>
 <g fill="#15919c">
  <path d="M81.5 243.9 c-2.2 -1.2 -6.6 -4 -9.7 -6.2 -7.9 -5.5 -7.8 -7.3 0.7 -19.5 0.9 -1.2 2.3 -2.2 3.1 -2.2 0.8 0 2.2 -1.6 2.9 -3.5 0.8 -1.9 3.3 -5.2 5.5 -7.3 2.4 -2.2 4.7 -5.9 5.8 -8.8 0.9 -2.7 2.1 -5.5 2.5 -6.1 1.5 -2.4 6.2 -1.3 12.2 2.8 7.4 5 6.8 4.4 5.6 6.6 -0.5 1 -1.7 3.5 -2.6 5.5 -1 2.1 -2.5 4 -3.6 4.3 -1 0.4 -1.9 1.5 -1.9 2.6 0 2.8 -1.8 5.9 -3.4 5.9 -1.9 0 -7.6 7.5 -7.6 10.1 0 3.4 -2.2 8.9 -3.6 8.9 -0.8 0 -1.4 1.7 -1.6 4.5 -0.3 4.5 -0.3 4.5 -4.3 2.4z"/>
 </g>
 <g fill="#266fae">
 </g>
 <g fill="#2179aa">
  <path d="M238.3 205.3 c-1.8 -0.7 -1.6 -2.3 0.2 -2.3 0.8 0 1.5 0.7 1.5 1.5 0 0.8 -0.1 1.5 -0.2 1.4 -0.2 0 -0.9 -0.3 -1.5 -0.6z"/>
 </g>
 <g fill="#2083a3">
 </g>
 <g fill="#19909e">
  <path d="M89.3 247.8 c-3.7 -1.8 -6.3 -3.7 -6.6 -5 -0.8 -2.9 0.4 -8.8 1.7 -8.8 1.4 0 3.6 -5.6 3.6 -8.9 0 -2.6 5.7 -10.1 7.6 -10.1 1.8 0 3.7 -3.8 3.1 -6.1 -0.3 -1.2 0 -1.9 0.9 -1.9 2 0 5.2 -3.9 5.9 -7.1 0.8 -3.7 2 -4.4 5.4 -2.9 2.9 1.1 2.9 1.1 0.5 3.5 -1.5 1.5 -2.1 3 -1.7 4.4 0.3 1.2 0.1 2.1 -0.6 2.1 -1.4 0 -4.5 6.7 -4.3 9.5 0.1 1.1 -0.5 2.6 -1.2 3.5 -0.8 0.8 -2.1 3.2 -3 5.4 -0.9 2.1 -2.5 4.6 -3.6 5.6 -2.4 2.1 -4.1 6.5 -3.3 8.6 0.4 1 -0.1 1.7 -1.6 2.1 -2.3 0.6 -3 4.3 -0.8 4.3 1.4 0 5.3 3.7 4.6 4.4 -0.2 0.2 -3.2 -1 -6.6 -2.6z"/>
  <path d="M103.2 194.9 c0.2 -0.6 0.8 -1 1.3 -1 0.5 0 1.1 0.4 1.3 1 0.2 0.6 -0.4 1.1 -1.3 1.1 -0.9 0 -1.5 -0.5 -1.3 -1.1z"/>
 </g>
 <g fill="#17969b">
  <path d="M60.6 228.8 c-3.2 -2.8 -8 -7.8 -10.7 -11 -4 -4.8 -4.9 -6.6 -4.9 -9.6 0 -2 0.7 -4.5 1.5 -5.6 1.5 -2 6 -4.6 8 -4.6 0.7 0 1.5 -0.9 1.8 -2 0.3 -1.3 1.4 -2 2.9 -2 1.5 0 2.9 -1 4 -3 0.9 -1.7 2.5 -3 3.5 -3 1.1 0 2.4 -1.3 3.1 -3 1 -2.1 2.1 -3 3.8 -3 1.5 0 2.4 -0.6 2.4 -1.5 0 -0.9 0.9 -1.5 2.5 -1.5 1.4 0 3.4 -0.9 4.5 -2 2.8 -2.8 3.3 -2.6 6.6 2.1 1.5 2.2 4.9 6 7.6 8.4 2.6 2.4 4.8 4.5 4.8 4.7 0 0.3 -1.3 0.3 -2.9 0 -3.3 -0.5 -3.8 0.2 -6.3 7.2 -1.1 3 -3.4 6.6 -5.9 8.9 -2.2 2.2 -4.5 5.2 -5.1 6.8 -0.5 1.6 -2.2 3.4 -3.6 4.1 -1.5 0.7 -3.6 2.9 -4.7 4.9 -1.1 2 -3.2 5 -4.6 6.8 -2.5 3.1 -2.5 3.1 -8.3 -2.1z"/>
 </g>
 <g fill="#1c8aa2">
  <path d="M125 257.4 c0 -0.8 0.5 -1.2 1 -0.9 0.6 0.3 1 1 1 1.6 0 0.5 -0.4 0.9 -1 0.9 -0.5 0 -1 -0.7 -1 -1.6z"/>
  <path d="M117.2 257.2 c-1.3 -0.2 -2.1 -0.9 -1.9 -1.5 0.5 -1.5 1.9 -1.8 3.6 -0.8 2 1.3 1 2.7 -1.7 2.3z"/>
 </g>
 <g fill="#17989a">
  <path d="M45 211.9 c-5.8 -7.8 -15 -24.3 -15 -26.9 0 -1.3 4.7 -1.3 5.5 0 0.3 0.6 1.5 1 2.6 1 1 0 1.9 -0.4 1.9 -1 0 -0.5 1.1 -1 2.5 -1 1.8 0 2.5 -0.5 2.5 -2 0 -1.8 0.7 -2 7.5 -2 6.5 0 7.6 -0.3 8.7 -2.1 1.2 -1.9 8.4 -5.9 10.7 -5.9 0.6 0 1.1 -0.8 1.1 -1.9 0 -1.3 1 -2 3.1 -2.5 5.1 -1 5.5 -0.8 8.8 4.5 4 6.5 2.7 9.7 -4.2 10 -1.2 0 -1.6 0.3 -0.9 0.6 0.6 0.2 1.2 1.3 1.2 2.4 0 2.2 -2.9 2.6 -4.8 0.7 -0.9 -0.9 -1.5 -0.8 -2.7 0.8 -0.8 1 -1.5 2.5 -1.5 3.2 0 0.6 -0.9 1.2 -1.9 1.2 -2 0 -5.1 3.5 -5.1 5.7 0 0.8 1.3 1.3 3.5 1.3 2.8 0 3.5 0.4 3.5 2 0 2.9 -6 2.9 -6.7 0 -0.9 -3.4 -6.3 -3.8 -6.3 -0.4 0 0.8 -0.6 1.4 -1.3 1.4 -2.6 0 -7.3 3 -8.5 5.2 -0.6 1.3 -1.3 3.8 -1.4 5.7 -0.3 3.3 -0.3 3.3 -2.8 0z"/>
 </g>
 <g fill="#237ea8">
  <path d="M183 187.5 c0 -0.3 0.2 -0.5 0.5 -0.5 0.3 0 0.5 0.2 0.5 0.5 0 0.3 -0.2 0.5 -0.5 0.5 -0.3 0 -0.5 -0.2 -0.5 -0.5z"/>
  <path d="M185 185.5 c0 -0.3 0.2 -0.5 0.5 -0.5 0.3 0 0.5 0.2 0.5 0.5 0 0.3 -0.2 0.5 -0.5 0.5 -0.3 0 -0.5 -0.2 -0.5 -0.5z"/>
 </g>
 <g fill="#199a9a">
  <path d="M39.3 201.3 c0.4 -0.3 1 -0.3 1.4 0 0.3 0.4 0 0.7 -0.7 0.7 -0.7 0 -1 -0.3 -0.7 -0.7z"/>
  <path d="M40.7 198.3 c-1.9 -1.8 -0.5 -3.3 3.1 -3.2 3.2 0 3.4 0.1 1.5 0.9 -1.3 0.5 -2.3 1.4 -2.3 2 0 1.1 -1.3 1.3 -2.3 0.3z"/>
  <path d="M32.2 188.3 c-1.9 -2.1 -7.2 -15.3 -7.2 -18.1 0 -0.5 0.8 -1.3 1.8 -1.6 0.9 -0.3 2.8 -1.3 4.2 -2.1 2.9 -1.7 8.3 -1.9 11 -0.5 1.3 0.7 1.9 0.6 2.3 -0.4 0.3 -0.7 2.4 -1.6 4.6 -2 2.3 -0.3 4.1 -1 4.1 -1.5 0 -1.3 4.9 -3.1 8.6 -3.1 2.7 0 3.7 0.5 4.1 2 0.5 2 2.3 2.8 2.3 1 0 -0.5 0.7 -1 1.5 -1 0.8 0 1.5 -0.6 1.5 -1.3 0 -1.7 4.4 -4.1 6.2 -3.4 0.8 0.2 2.2 2.9 3.1 5.8 1 3 2.1 6 2.4 6.7 0.2 0.6 -0.2 1.2 -1.1 1.2 -0.9 0 -1.6 0.5 -1.6 1.1 0 0.6 -0.9 0.8 -2.2 0.4 -1.7 -0.6 -2 -0.4 -1.5 0.9 0.4 1.1 0 1.9 -1.1 2.3 -5.5 1.9 -9.9 4.4 -11 6.2 -0.7 1.2 -2.1 2.1 -3.2 2.1 -1.3 0 -2.6 1.4 -3.9 4.3 -2.1 4.2 -2.1 4.2 -1.5 0 0.6 -4.2 0.6 -4.2 -3.5 -4.1 -3.3 0 -4.1 0.4 -4.1 1.9 0 1.4 -0.7 1.9 -2.5 1.9 -1.4 0 -2.5 0.5 -2.5 1 0 0.6 -1.3 1 -3 1 -1.6 0 -3 0.5 -3 1 0 1.7 -2.4 0.9 -4.8 -1.7z"/>
 </g>
 <g fill="#1a9d98">
  <path d="M25.6 172.2 c-0.7 -1.1 -3.6 -13.1 -3.6 -14.9 0 -0.8 2.7 -1.2 8.8 -1.2 9.3 0 14.2 -1.2 14.2 -3.5 0 -1 2 -1.6 7.3 -2.1 3.9 -0.4 7.9 -1.4 8.9 -2.2 1.2 -1.1 3.1 -1.3 8.6 -0.8 7 0.7 7 0.7 7.6 4.5 0.3 2.1 0.8 4.5 1.1 5.2 0.4 0.9 -0.5 2 -2 2.8 -1.4 0.7 -2.5 1.9 -2.5 2.7 0 0.7 -0.7 1.3 -1.5 1.3 -0.8 0 -1.5 0.4 -1.5 0.9 0 1.2 -3.6 2 -6 1.4 -1.1 -0.3 -2 -1.1 -2 -1.9 0 -0.7 -0.4 -1.6 -1 -1.9 -1.1 -0.7 -5.1 1.2 -6.2 2.9 -0.4 0.5 -2.2 1.2 -4 1.4 -1.8 0.2 -3.8 0.9 -4.3 1.7 -1.4 1.8 -5.5 2.2 -8.2 0.7 -2.2 -1.2 -4.7 -0.8 -7.3 1.3 -2.2 1.8 -5.7 2.7 -6.4 1.7z"/>
  <path d="M77 163 c0 -0.5 0.7 -1 1.6 -1 0.8 0 1.2 0.5 0.9 1 -0.3 0.6 -1 1 -1.6 1 -0.5 0 -0.9 -0.4 -0.9 -1z"/>
 </g>
 <g fill="#228ea0">
  <path d="M118.5 202 c-0.3 -0.5 0.3 -1 1.4 -1 1.2 0 2.1 0.5 2.1 1 0 0.6 -0.6 1 -1.4 1 -0.8 0 -1.8 -0.4 -2.1 -1z"/>
 </g>
 <g fill="#1ba098">
  <path d="M23 162.5 c0 -0.3 0.2 -0.5 0.5 -0.5 0.3 0 0.5 0.2 0.5 0.5 0 0.3 -0.2 0.5 -0.5 0.5 -0.3 0 -0.5 -0.2 -0.5 -0.5z"/>
  <path d="M21.8 154.9 c-0.2 -3.1 0.2 -5.5 0.9 -6.1 0.7 -0.5 4.5 -1.4 8.5 -1.9 15.2 -2 24.5 -3 31.3 -3.5 3.9 -0.3 7.4 -1 7.9 -1.5 1.9 -1.8 5.3 -1 6 1.4 1.2 4.6 0.7 7.7 -1.3 7.7 -1.1 0 -2.3 0.5 -2.6 1 -0.9 1.5 -3.6 1.2 -5.6 -0.6 -1.5 -1.4 -1.9 -1.3 -3.7 1.1 -1.7 2.1 -2.5 2.4 -3.9 1.7 -2.6 -1.4 -11.3 -0.3 -11.3 1.5 0 2.2 -4.5 3.3 -15.5 3.8 -10.3 0.5 -10.3 0.5 -10.7 -4.6z"/>
 </g>
 <g fill="#1ba297">
  <path d="M21.6 151.8 c-0.3 -1.3 -0.6 -5.3 -0.6 -8.9 0 -6.5 0 -6.5 4.1 -8.3 2.8 -1.3 5 -1.6 7.2 -1.1 1.8 0.5 12.5 1 23.8 1.2 20.7 0.4 20.7 0.4 20.1 4.6 -0.3 2.3 -1.2 4.7 -2.1 5.4 -0.9 0.7 -4.4 1.3 -7.9 1.3 -4 0 -7.7 0.7 -10 1.8 -2.9 1.4 -4.6 1.6 -7.1 0.9 -2.5 -0.6 -3.7 -0.4 -5.1 0.8 -1.3 1.2 -2 1.3 -2.5 0.5 -0.4 -0.7 -1.8 -0.9 -3.2 -0.5 -1.4 0.3 -4.5 0.8 -6.9 1 -2.4 0.3 -5.5 1.2 -6.8 2 -2.2 1.5 -2.4 1.4 -3 -0.7z"/>
  <path d="M73.2 147.4 c0.2 -1.1 1.1 -2 2.2 -2.2 1.3 -0.3 1.7 0.1 1.4 1.4 -0.2 1.1 -1.1 2 -2.2 2.2 -1.3 0.3 -1.7 -0.1 -1.4 -1.4z"/>
 </g>
 <g fill="#1da596">
  <path d="M21.5 130.9 c1 -14.2 1.1 -14.5 6.9 -11 3.7 2.3 8.1 3 20.3 3.5 5.1 0.2 9.9 0.8 10.5 1.3 0.7 0.6 3.3 1.3 5.8 1.7 12.9 1.8 12 1.3 12 6.2 0 2.3 -0.6 4.6 -1.2 5.1 -0.7 0.4 -6.9 0.7 -13.8 0.6 -6.9 -0.1 -13.1 0.2 -13.9 0.7 -0.8 0.4 -2.4 0.3 -3.6 -0.2 -1.5 -0.6 -3.4 -0.6 -5.9 0 -3.2 0.9 -4 0.8 -5.7 -0.9 -1.4 -1.4 -2.4 -1.7 -3.7 -0.9 -8.9 4.9 -8.5 5.1 -7.7 -6.1z"/>
 </g>
 <g fill="#25969e">
  <path d="M74.3 239.7 c-3.7 -2.5 -4 -3.2 -1.7 -4.1 1.7 -0.7 6.4 3.1 6.4 5.2 0 1.7 -1 1.4 -4.7 -1.1z"/>
  <path d="M65.7 233.2 c-0.9 -1 -1.5 -2.7 -1.4 -3.9 0.1 -1.8 0.5 -2 2.4 -1.2 1.7 0.6 2.3 0.5 2.3 -0.5 0 -0.8 1.2 -2.1 2.6 -3 2.5 -1.7 2.5 -1.7 1 1.3 -0.9 1.6 -2 3.3 -2.6 3.6 -0.5 0.3 -1 1.7 -1 3.1 0 2.8 -1.1 3.1 -3.3 0.6z"/>
  <path d="M61.6 230.1 c-0.4 -0.7 -0.5 -1.5 -0.2 -1.8 0.9 -0.9 1.9 0.4 1.4 1.8 -0.4 1.1 -0.6 1.1 -1.2 0z"/>
  <path d="M74 221.6 c0 -0.2 0.8 -1 1.8 -1.7 1.5 -1.3 1.6 -1.2 0.3 0.4 -1.3 1.6 -2.1 2.1 -2.1 1.3z"/>
  <path d="M78 217.6 c0 -0.9 0.7 -1.6 1.6 -1.6 1.7 0 1.4 2.2 -0.4 2.8 -0.7 0.2 -1.2 -0.3 -1.2 -1.2z"/>
  <path d="M81.6 211.5 c-0.3 -0.9 0.1 -1.8 0.9 -2.1 0.8 -0.4 1.5 -1.2 1.5 -2 0 -0.8 1 -1.4 2.5 -1.4 2.1 0 2.5 -0.5 2.5 -2.8 0 -1.6 0.9 -3.7 2 -4.7 1.1 -1 2 -2.4 2 -3.1 0 -2.1 3.2 -5.4 5.3 -5.4 2.2 0 7.7 3.7 7.7 5.1 0 1.7 -3 0.9 -4.2 -1.1 -1.4 -2.2 -5.3 -2.7 -6.5 -0.7 -0.4 0.6 -1.6 3.4 -2.5 6.1 -2.1 5.8 -10.2 14.6 -11.2 12.1z"/>
 </g>
 <g fill="#24999c">
  <path d="M61 229 c0 -0.7 0.3 -1 0.7 -0.7 0.3 0.4 0.3 1 0 1.4 -0.4 0.3 -0.7 0 -0.7 -0.7z"/>
  <path d="M52.5 221 c-1.3 -1.4 -1.5 -2.4 -0.8 -3.1 1.4 -1.4 4.3 0 4.3 2.1 0 2.8 -1.5 3.2 -3.5 1z"/>
  <path d="M44.4 211.1 c-3.5 -4.4 -5.8 -9 -5 -9.8 1 -1 3.6 2.5 3 4.1 -0.2 0.6 0.6 1.6 1.8 2.1 2.8 1.3 4.6 4.1 3.3 5.4 -0.6 0.5 -1.8 -0.1 -3.1 -1.8z"/>
  <path d="M82.5 176 c0.3 -0.5 0.8 -1 1.1 -1 0.3 0 0.2 0.5 -0.1 1 -0.3 0.6 -0.8 1 -1.1 1 -0.3 0 -0.2 -0.4 0.1 -1z"/>
 </g>
 <g fill="#1ea994">
  <path d="M67.5 130.4 c-2.2 -0.8 -5.1 -1.2 -6.4 -0.9 -1.4 0.4 -3 0 -4.1 -1 -1.6 -1.5 -8.9 -2.2 -15 -1.5 -2.8 0.4 -14.5 -2.7 -17.2 -4.4 -2.9 -1.9 -2.9 -1.2 0.8 -14.3 1.4 -5.2 3.6 -6.9 4.8 -3.8 0.3 0.8 1.5 1.5 2.8 1.5 3.9 0 14.2 2.1 17 3.5 1.5 0.8 6.2 1.9 10.4 2.6 6.7 1.2 7.7 1.6 8.6 3.9 0.9 2.3 1 2.4 2.2 0.8 0.8 -1 2.6 -1.8 4.2 -1.8 5.1 0 5.5 0.9 3.3 7.4 -1 3.3 -1.9 6.5 -1.9 7.3 0 0.7 -0.6 1.3 -1.4 1.3 -0.8 0 -2 0.2 -2.8 0.4 -0.7 0.3 -3.1 -0.2 -5.3 -1z"/>
 </g>
 <g fill="#1fac93">
  <path d="M68.7 121.2 c-1 -0.2 -2.2 -1.5 -2.7 -2.8 -0.7 -1.8 -1.8 -2.4 -4.2 -2.6 -6.3 -0.3 -6.7 -0.4 -7.4 -1.1 -0.4 -0.4 -1.6 -0.7 -2.6 -0.7 -1 0 -3 -0.7 -4.3 -1.6 -1.6 -1.1 -3.6 -1.4 -5.4 -1.1 -1.8 0.4 -3.1 0.2 -3.3 -0.5 -0.3 -0.7 -2.5 -1.2 -5.5 -1.1 -6.7 0.1 -7.8 -1.9 -5.1 -9.7 2.5 -7.3 3.2 -7.9 6.2 -4.7 1.9 2.1 3.4 2.7 6.6 2.7 2.2 0 4 0.4 4 0.9 0 0.5 1.4 1.4 3 2 1.7 0.5 3 1.4 3 1.8 0 0.5 1.8 0.7 4.1 0.5 3 -0.3 4.8 0.1 7 1.7 1.5 1.1 4.1 2.1 5.6 2.1 1.5 0 4.8 0.9 7.2 2 2.4 1.1 5.2 2 6.3 2 1.5 0 1.8 0.4 1.3 1.8 -0.4 0.9 -1.1 2.9 -1.7 4.4 -0.8 2.3 -1.3 2.6 -3.3 1.8 -1.7 -0.6 -2.5 -0.5 -2.8 0.4 -0.6 1.5 -3.4 2.4 -6 1.8z"/>
 </g>
 <g fill="#279c9b">
  <path d="M28.6 182.5 c-1 -2.7 -0.7 -4.5 0.8 -4.5 2.1 0 2.4 1.2 1.1 3.8 -1.1 2 -1.3 2.1 -1.9 0.7z"/>
  <path d="M78.3 166.3 c-0.7 -0.2 -1.3 -1.4 -1.3 -2.5 0 -2.7 3 -2 4.1 1 0.8 2.2 0 2.7 -2.8 1.5z"/>
 </g>
 <g fill="#2b93a1">
  <path d="M95 250 c0 -0.7 0.3 -1 0.7 -0.7 0.3 0.4 0.3 1 0 1.4 -0.4 0.3 -0.7 0 -0.7 -0.7z"/>
  <path d="M93 249 c0 -0.7 0.3 -1 0.7 -0.7 0.3 0.4 0.3 1 0 1.4 -0.4 0.3 -0.7 0 -0.7 -0.7z"/>
 </g>
 <g fill="#25a29a">
  <path d="M73.2 147.3 c0.5 -2.6 3.8 -2.9 3.8 -0.4 0 1.5 -0.6 2.1 -2.1 2.1 -1.4 0 -1.9 -0.5 -1.7 -1.7z"/>
 </g>
 <g fill="#299f99">
  <path d="M23.7 165.4 c-0.4 -0.4 -0.7 -1.4 -0.7 -2.3 0 -1.1 0.3 -1.2 1.1 -0.4 0.6 0.6 1 1.6 0.7 2.3 -0.2 0.6 -0.7 0.8 -1.1 0.4z"/>
  <path d="M74.8 150.3 c0.7 -0.3 1.6 -0.2 1.9 0.1 0.4 0.3 -0.2 0.6 -1.3 0.5 -1.1 0 -1.4 -0.3 -0.6 -0.6z"/>
 </g>
 <g fill="#21ae93">
  <path d="M77 116.5 c0.7 -0.8 1.9 -1.5 2.6 -1.5 0.8 0 1.4 0.7 1.4 1.5 0 1 -1 1.5 -2.6 1.5 -2.2 0 -2.5 -0.2 -1.4 -1.5z"/>
  <path d="M72.1 112.3 c-2.9 -1.5 -4.8 -1.9 -5.6 -1.3 -1.3 1 -5.5 0.2 -5.5 -1.1 0 -0.5 -1.1 -1.6 -2.5 -2.5 -2.4 -1.6 -2.7 -1.5 -4.5 0.1 -2.1 1.9 -6 1.2 -6 -1.1 0 -0.8 -1.3 -2 -3 -2.5 -1.7 -0.6 -3 -1.5 -3 -2 0 -1.3 -3.4 -1.1 -4.7 0.2 -0.8 0.8 -1.7 0.5 -3.2 -1 -1.2 -1.2 -2.5 -2.1 -3 -2.1 -1.7 0 -0.4 -6.5 2.3 -11.9 2.7 -5.3 4.8 -6.2 5.4 -2.3 0.3 1.8 1 2.2 3.8 2.2 2.5 0 4.9 1.2 9.4 4.7 3.3 2.5 6 5 6 5.5 0 0.4 1.5 0.8 3.3 0.8 1.8 0 3.7 0.4 4.3 0.9 0.5 0.5 2.7 1.1 4.9 1.3 3.2 0.2 4.1 0.7 4.3 2.5 0.2 1.6 1.6 2.6 5.2 3.9 4.8 1.7 4.8 1.7 3.3 4.8 -1.8 3.8 -4.9 4.1 -11.2 0.9z"/>
 </g>
 <g fill="#21b192">
  <path d="M75.5 109.1 c-2.7 -1.1 -4 -2.2 -4 -3.6 0 -1.5 -0.7 -1.9 -3.8 -2 -2.1 -0.1 -4.3 -0.7 -4.9 -1.3 -0.7 -0.7 -2.7 -1.2 -4.5 -1.2 -1.8 0 -3.3 -0.4 -3.3 -0.8 0 -1.2 -11.7 -10.2 -13.3 -10.2 -0.7 0 -1.8 0.5 -2.5 1.2 -1.6 1.6 -2.9 0.1 -3.7 -4.1 -0.5 -2.9 0.1 -4.4 4 -10.3 4.5 -6.8 4.5 -6.8 9.9 -6.8 5.1 0 5.5 0.2 6.5 3 0.7 2.1 1.7 3 3.3 3 3.1 0.1 8.7 5.1 9.7 8.6 0.6 2.2 1.4 3 3.6 3.2 1.6 0.2 3.5 1.2 4.2 2.2 0.7 1 2.8 2 4.6 2.2 2.8 0.3 3.2 0.7 3.5 3.5 0.2 2.3 0.9 3.3 2.7 3.7 2.3 0.6 2.3 0.6 -0.8 6.1 -3.5 6 -4.6 6.4 -11.2 3.6z"/>
 </g>
 <g fill="#3486aa">
 </g>
 <g fill="#23b691">
  <path d="M83.3 102.3 c-1.9 -0.4 -2.2 -1 -2 -3.6 0.2 -2.9 -0.1 -3.2 -3 -3.5 -1.8 -0.2 -3.9 -1.2 -4.6 -2.2 -0.7 -1 -2.6 -2 -4.2 -2.2 -2.2 -0.2 -3 -1 -3.6 -3.2 -1 -3.5 -6.6 -8.5 -9.7 -8.6 -1.7 0 -2.6 -0.9 -3.4 -3.1 -1 -3 -1.2 -3.1 -5.6 -2.4 -2.6 0.4 -5.2 1.4 -5.9 2.3 -0.7 1 -1.3 1.3 -1.3 0.9 0 -0.5 2.1 -3.7 4.6 -7.3 5.9 -8.3 17.9 -20 27.2 -26.5 7.2 -5 7.2 -5 7.2 -2 0 2.7 -0.3 3.1 -2.8 3.1 -2.8 0 -2.9 0.3 -4.2 7 -1.1 5.8 -1.6 7 -3.3 7 -1.6 0 -1.7 0.3 -0.7 1.5 0.7 0.8 2.1 1.5 3.2 1.5 3.5 0 5.8 1.9 5.8 4.9 0 1.6 0.7 3.4 1.5 4.1 0.8 0.7 1.5 1.9 1.5 2.6 0 0.8 1 1.4 2.5 1.4 1.3 0 3.4 0.4 4.7 0.9 1.3 0.5 3.5 1.2 5 1.5 1.9 0.4 2.8 1.4 3.2 3.4 0.6 2.5 0.9 2.7 5.1 2.4 4.2 -0.4 4.5 -0.2 4.5 2 0 1.3 -1 3.2 -2.2 4.2 -1.3 1 -5.3 4.7 -9 8.2 -3.6 3.5 -7 6.3 -7.5 6.3 -0.4 -0.1 -1.8 -0.4 -3 -0.6z"/>
 </g>
 <g fill="#24b990">
  <path d="M92.5 92 c-0.8 -1.3 1.5 -1.3 3.5 0 1.2 0.8 1.1 1 -0.7 1 -1.2 0 -2.5 -0.4 -2.8 -1z"/>
  <path d="M94.9 89.2 c-1.1 -0.2 -1.8 -1.7 -2.2 -4.4 -0.6 -4.7 -2.4 -6.3 -4.8 -4.2 -2.1 1.9 -2.9 1.8 -2.9 -0.5 0 -2.1 -1.9 -3.1 -5.6 -3.1 -1.5 0 -2.4 -0.6 -2.4 -1.5 0 -0.8 -0.9 -2 -1.9 -2.7 -1.5 -0.9 -1.8 -1.9 -1.4 -3.9 0.4 -2.1 0 -3 -1.7 -3.9 -1.2 -0.6 -2.7 -0.9 -3.5 -0.7 -1.8 0.7 -6.5 -4.4 -6.5 -7.1 0 -1.8 0.6 -2.2 3.1 -2.2 2.8 0 3.1 -0.2 2.5 -2.5 -0.4 -1.4 -0.2 -2.5 0.3 -2.5 0.4 0 1.1 -1.3 1.4 -2.9 0.4 -2.1 2.2 -4 6.4 -6.8 6 -4.1 20.1 -11.3 22.2 -11.3 0.6 0 1.1 1.3 1.1 2.9 0 2.5 -0.4 3 -2.7 3.3 -3.2 0.3 -4.6 4.4 -1.9 5.4 0.9 0.3 1.6 1.7 1.6 3 0 1.3 0.5 2.4 1 2.4 1.9 0 6 4.8 6 7 0 1.1 1.1 4.3 2.5 7.2 1.7 3.5 2.5 6.9 2.5 10.3 0 3.8 0.6 5.8 2 7.5 2.9 3.3 2.5 4.7 -1.9 6.9 -2.1 1.1 -4.6 2.8 -5.6 3.7 -1.3 1.3 -1.9 1.4 -2.8 0.5 -0.9 -1 -0.8 -1.6 0.7 -2.7 1.1 -0.8 1.5 -1.4 0.9 -1.4 -0.7 0 -2 1 -3 2.3 -1 1.2 -2.5 2.1 -3.4 1.9z"/>
 </g>
 <g fill="#2daa97">
  <path d="M22.5 121 c-0.3 -0.6 0.1 -0.7 0.9 -0.4 1.8 0.7 2.1 1.4 0.7 1.4 -0.6 0 -1.3 -0.4 -1.6 -1z"/>
  <path d="M25.1 109.4 c0 -1.1 0.3 -1.4 0.6 -0.6 0.3 0.7 0.2 1.6 -0.1 1.9 -0.3 0.4 -0.6 -0.2 -0.5 -1.3z"/>
  <path d="M26 105.5 c0 -0.3 0.2 -0.5 0.5 -0.5 0.3 0 0.5 0.2 0.5 0.5 0 0.3 -0.2 0.5 -0.5 0.5 -0.3 0 -0.5 -0.2 -0.5 -0.5z"/>
 </g>
 <g fill="#25bb8f">
  <path d="M105 84.4 c0 -0.8 0.5 -1.2 1 -0.9 0.6 0.3 1 1 1 1.6 0 0.5 -0.4 0.9 -1 0.9 -0.5 0 -1 -0.7 -1 -1.6z"/>
  <path d="M107.2 81.3 c-1.2 -1.5 -2.2 -3.5 -2.2 -4.5 0 -1 -0.6 -2.7 -1.2 -3.8 -0.9 -1.5 -1 -2.5 -0.2 -3.7 0.8 -1.3 0.5 -2.8 -1.3 -6.5 -1.3 -2.6 -2.3 -5.7 -2.3 -6.8 0 -2.8 -4.6 -7.4 -6.6 -6.6 -1.3 0.5 -1.4 0 -0.9 -2.3 0.4 -2.1 0.2 -3 -0.9 -3.4 -0.9 -0.4 -1.6 -1.8 -1.6 -3.2 0 -1.5 -0.6 -2.5 -1.4 -2.5 -0.8 0 -1.6 -0.6 -1.9 -1.4 -0.3 -0.8 0.1 -1.3 1 -1.2 0.9 0 1.8 -0.5 2 -1.2 0.3 -0.8 -0.1 -1 -1.4 -0.5 -1 0.3 -1.5 0.3 -1.2 -0.1 0.4 -0.4 1.9 -0.9 3.5 -1.2 1.6 -0.3 3.1 -0.9 3.4 -1.4 0.3 -0.6 3.2 -1.9 6.3 -2.9 5.7 -2 5.7 -2 5.7 0.9 0 1.6 -0.5 3.2 -1.1 3.5 -0.7 0.5 -0.5 1.4 0.5 2.9 0.8 1.2 1.7 4.7 2.1 7.7 0.5 4.3 1.2 5.7 2.8 6.5 1.4 0.6 2.3 2 2.5 3.9 0.2 1.7 1.1 3.8 1.9 4.7 1.2 1.4 1.4 3 0.9 7.7 -0.5 4.6 -0.3 6.2 0.9 7.4 0.8 0.9 1.5 2.8 1.5 4.4 0 2.4 -0.6 3.1 -3.7 4.3 -2.1 0.8 -4 1.6 -4.4 1.8 -0.3 0.1 -1.5 -1 -2.7 -2.5z m-11.2 -49.8 c0 -0.3 -0.2 -0.5 -0.5 -0.5 -0.3 0 -0.5 0.2 -0.5 0.5 0 0.3 0.2 0.5 0.5 0.5 0.3 0 0.5 -0.2 0.5 -0.5z"/>
 </g>
 <g fill="#32a09e">
 </g>
 <g fill="#2ead97">
  <path d="M77.7 119.2 c-2.1 -0.4 -1.8 -2.1 0.6 -3.6 2.1 -1.3 3.3 -0.1 2.1 2.2 -0.5 1 -1.7 1.6 -2.7 1.4z"/>
  <path d="M26.5 105 c0.3 -0.5 0.8 -1 1.1 -1 0.3 0 0.2 0.5 -0.1 1 -0.3 0.6 -0.8 1 -1.1 1 -0.3 0 -0.2 -0.4 0.1 -1z"/>
 </g>
 <g fill="#26be8f">
  <path d="M115 80 c-0.8 -0.5 -1.1 -1.2 -0.8 -1.6 0.4 -0.3 -0.2 -1.5 -1.2 -2.6 -1.3 -1.4 -1.7 -3 -1.4 -4.9 0.2 -1.6 0.6 -4.2 0.9 -5.9 0.3 -2.4 -0.1 -3.3 -2 -4.6 -2 -1.3 -2.3 -2 -1.4 -3.6 1.1 -2.1 -0.3 -4.8 -2.6 -4.8 -0.8 0 -1.5 -2.2 -2 -5.7 -0.4 -3.2 -1.5 -6.9 -2.6 -8.4 -1.8 -2.5 -1.7 -6 0.3 -8.6 0.7 -0.8 0.3 -1 -1.4 -0.7 -1.9 0.3 4.8 -2.1 11.3 -4.1 1.4 -0.5 1.7 1 2.1 10.5 0.4 8.2 1 11.4 2.1 12.3 0.8 0.7 1.7 2.6 2.1 4.2 2 10.5 3.2 14.5 4.2 14.5 1.4 0 2.4 2.3 2.4 5.6 0 1.3 0.5 2.4 1 2.4 0.6 0 1 0.8 1 1.9 0 1.3 -1.2 2.2 -4.2 3 -2.4 0.7 -4.7 1.4 -5.3 1.6 -0.5 0.3 -1.7 0 -2.5 -0.5z"/>
 </g>
 <g fill="#27c08e">
  <path d="M119 79 c0 -0.7 0.3 -1 0.7 -0.7 0.3 0.4 0.3 1 0 1.4 -0.4 0.3 -0.7 0 -0.7 -0.7z"/>
  <path d="M123.3 77.4 c-0.7 -0.3 -1.3 -1.6 -1.3 -2.9 0 -3.7 -1.1 -5.5 -3.2 -5.5 -1.7 0 -2 -0.5 -1.5 -2.7 0.3 -1.6 -0.1 -4.6 -0.9 -6.8 -0.7 -2.2 -1.4 -5 -1.4 -6.3 0 -1.2 -0.7 -2.5 -1.5 -2.8 -0.8 -0.4 -1.5 -1.9 -1.5 -3.4 0 -1.6 -0.4 -3.1 -0.9 -3.4 -1.2 -0.8 -0.8 -17.3 0.4 -18.5 0.9 -0.7 9.2 -3.1 11.1 -3.1 0.3 0 0.3 1.5 0 3.2 -1.7 8.2 -1.8 9.8 -0.7 9.8 0.8 0 1.2 1.9 1.1 5.3 -0.1 5.4 1.1 13.8 2.5 17.2 0.5 1.1 1.9 3 3.2 4.2 1.8 1.8 2.5 3.7 3 8.8 0.5 5.9 0.4 6.5 -1.3 6.5 -1 0 -2.8 0.2 -3.9 0.5 -1.1 0.2 -2.6 0.2 -3.2 -0.1z"/>
  <path d="M107.5 27 c-0.3 -0.5 -0.1 -1 0.4 -1 0.6 0 1.1 0.5 1.1 1 0 0.6 -0.2 1 -0.4 1 -0.3 0 -0.8 -0.4 -1.1 -1z"/>
 </g>
 <g fill="#28c28d">
  <path d="M128.6 71.9 c-0.5 -3.4 -1.5 -5.8 -3 -7.2 -1.2 -1.2 -2.6 -3.1 -3.1 -4.2 -1.3 -3.3 -2.7 -11.7 -2.9 -17.3 0 -2.8 -0.4 -5.2 -0.8 -5.2 -0.5 0 -0.8 -1.1 -0.8 -2.4 0 -1.4 -0.4 -2.7 -1 -3.1 -1 -0.6 -0.6 -2.5 1.8 -7.2 1.4 -2.8 2.2 -3.3 5.3 -3.3 2 0 5.1 -0.3 6.8 -0.6 3.1 -0.6 3.1 -0.6 3.1 3.4 0 2.3 -0.6 4.7 -1.3 5.4 -2 1.8 -0.9 5.6 1.7 6 1.9 0.3 2.1 1 2.4 8 0.2 5.7 -0.1 8.4 -1.3 10.1 -1.4 2.2 -1.4 2.5 0.2 3.9 1 0.8 2.6 1.8 3.6 2.1 1.4 0.5 1.7 1.9 1.7 7.7 0 6.6 -0.1 7.1 -2.6 8 -1.4 0.6 -4 1 -5.8 1 -3.3 0 -3.4 -0.1 -4 -5.1z"/>
 </g>
 <g fill="#3a9ca1">
 </g>
 <g fill="#2ac58c">
  <path d="M222 82.5 c0 -3.5 0 -3.5 4.6 -3.5 5.4 0 5.5 1.3 0.4 4.8 -4.4 3 -5 2.8 -5 -1.3z"/>
  <path d="M167.7 82.5 c-4.6 -2.4 -15.6 -5.5 -19.6 -5.5 -2 0 -5.3 -0.3 -7.3 -0.6 -3.7 -0.7 -3.7 -0.7 -3.1 -6.5 0.5 -5.5 0.4 -5.9 -1.9 -6.8 -4.9 -1.9 -6.9 -8 -3.6 -11.5 2.7 -3 2.3 -12.1 -0.7 -12.1 -2 0 -2.8 -1.7 -4.2 -8.8 -0.4 -2 -0.1 -2.7 1 -2.7 1.9 0 3 -3 2.1 -5.5 -0.7 -1.7 0.1 -1.8 13.3 -1.2 16.6 0.7 29.6 3.6 43.6 9.6 4.7 2 6.1 4.4 3.1 5.5 -2.9 1.1 -7.7 0.6 -9.6 -1.1 -1.7 -1.5 -1.8 -1.4 -1.8 2.5 0 2.2 -0.4 4.4 -1 4.7 -0.5 0.3 -1 2.2 -1 4.1 0 1.9 -0.4 3.4 -1 3.4 -0.5 0 -1 0.6 -1 1.3 0 0.6 -2.2 3.4 -4.9 6 -4.9 4.9 -4.9 4.9 -4.4 10.4 0.4 3.9 1.3 6.2 3 7.9 1.4 1.4 2.3 3.5 2.3 5.4 0 1.6 -0.1 3 -0.2 3 -0.2 0 -1.6 -0.7 -3.1 -1.5z"/>
 </g>
 <g fill="#34b495">
  <path d="M85.5 102.6 c-2.7 -1.9 -1.2 -4.6 2.5 -4.6 3.5 0 3.6 0.4 1.1 3.6 -1.6 2 -2.1 2.1 -3.6 1z"/>
  <path d="M40 76.1 c0 -0.5 0.5 -1.3 1 -1.6 0.6 -0.3 1 -0.2 1 0.4 0 0.5 -0.4 1.3 -1 1.6 -0.5 0.3 -1 0.2 -1 -0.4z"/>
 </g>
 <g fill="#2bc98b">
  <path d="M208 91.5 c0 -3.5 0 -3.5 4.5 -3.5 5.5 0 5.8 1.6 1 4.8 -4.7 3 -5.5 2.8 -5.5 -1.3z"/>
  <path d="M173.4 85.8 c-2.7 -1.7 -5.7 -4.3 -6.7 -5.9 -0.9 -1.7 -2.4 -2.9 -3.7 -2.9 -1.7 0 -1.9 -0.3 -1.1 -1.7 0.5 -1 0.7 -5 0.4 -8.8 -0.5 -7 -0.5 -7 4.6 -12 2.8 -2.8 5.1 -5.6 5.1 -6.2 0 -0.7 0.5 -1.3 1 -1.3 0.6 0 1 -1.5 1 -3.4 0 -1.9 0.5 -3.8 1.1 -4.1 0.5 -0.4 0.8 -1.9 0.5 -3.3 -0.7 -3.1 -0.1 -4.1 3.3 -6 2.2 -1.3 2.6 -1.2 4.6 1.3 1.8 2.4 2.4 2.6 4.3 1.6 2.5 -1.3 6.1 0.2 16.4 6.8 4.2 2.6 5.8 4.2 5.8 5.9 0 1.8 -0.5 2.2 -3.2 2.2 -1.7 0 -4 -0.8 -5.1 -1.7 -1.8 -1.7 -1.9 -1.7 -2.8 0 -0.6 0.9 -1.6 1.7 -2.3 1.7 -2 0 -4 5.1 -3.7 9.7 0.5 7 -0.7 10.3 -3.5 10.3 -2.5 0 -4.4 3 -4.4 7.1 0 1 -1.2 3.3 -2.7 5 -1.6 1.7 -3 4.3 -3.3 5.9 -0.5 2.9 -0.5 2.9 -5.6 -0.2z"/>
  <path d="M223 81.5 c0 -3.5 0 -3.5 4.5 -3.5 3.2 0 4.5 0.4 4.5 1.4 0 1.6 -2.7 3 -5.2 2.7 -1.2 -0.2 -1.6 0.3 -1.2 1.3 0.4 1.1 0.1 1.6 -1 1.6 -1.2 0 -1.6 -1 -1.6 -3.5z"/>
  <path d="M176 28 c0 -0.5 0.4 -1 0.9 -1 0.6 0 1.3 0.5 1.6 1 0.3 0.6 -0.1 1 -0.9 1 -0.9 0 -1.6 -0.4 -1.6 -1z"/>
 </g>
 <g fill="#33ba92">
  <path d="M100 87.2 c0 -0.4 1.3 -1.5 2.9 -2.5 3.4 -2 5.5 -0.5 2.5 1.8 -2.1 1.6 -5.4 2 -5.4 0.7z"/>
  <path d="M114.5 80 c-0.9 -1.5 0.4 -3 2.5 -3 2.4 0 3.6 2 1.9 3.1 -1.9 1.2 -3.6 1.1 -4.4 -0.1z"/>
  <path d="M81 36.5 c0 -0.3 0.2 -0.5 0.5 -0.5 0.3 0 0.5 0.2 0.5 0.5 0 0.3 -0.2 0.5 -0.5 0.5 -0.3 0 -0.5 -0.2 -0.5 -0.5z"/>
  <path d="M87 33.6 c0 -0.2 0.7 -0.7 1.6 -1 0.8 -0.3 1.2 -0.2 0.9 0.4 -0.6 1 -2.5 1.4 -2.5 0.6z"/>
  <path d="M94 31.1 c0 -0.5 0.7 -1.2 1.6 -1.5 1.4 -0.5 1.5 -0.4 0.4 0.9 -1.4 1.7 -2 1.9 -2 0.6z"/>
  <path d="M99 28.5 c0 -0.3 0.2 -0.5 0.5 -0.5 0.3 0 0.5 0.2 0.5 0.5 0 0.3 -0.2 0.5 -0.5 0.5 -0.3 0 -0.5 -0.2 -0.5 -0.5z"/>
 </g>
 <g fill="#34bc91">
  <path d="M114.3 78.5 c0.5 -1.4 4.9 -1.3 5.4 0.1 0.2 0.7 -0.8 1.1 -2.7 1 -1.6 -0.1 -2.8 -0.5 -2.7 -1.1z"/>
  <path d="M100.5 28 c2.7 -1.2 4.3 -1.2 2.5 0 -0.8 0.5 -2.2 0.9 -3 0.9 -1 0 -0.8 -0.3 0.5 -0.9z"/>
  <path d="M106.5 27 c-1.9 -0.8 -1.9 -0.9 0.3 -0.9 1.2 -0.1 2.2 0.4 2.2 0.9 0 0.6 -0.1 1 -0.2 0.9 -0.2 0 -1.2 -0.4 -2.3 -0.9z"/>
 </g>
 <g fill="#459aa3">
 </g>
 <g fill="#2dcd89">
  <path d="M206 92.6 c0 -4.4 1.9 -5.8 8.6 -6.4 4.3 -0.4 5.4 -0.1 5.4 1 0 1.8 -4.7 4.4 -7.1 4 -1.3 -0.2 -1.7 0.1 -1.3 1.2 0.3 0.8 -0.3 1.9 -1.5 2.5 -3.2 1.8 -4.1 1.3 -4.1 -2.3z"/>
  <path d="M179.8 90.2 c-4.8 -3.5 -5.4 -7.3 -1.9 -11.6 1.4 -1.7 2.9 -3.3 3.2 -3.6 0.4 -0.3 0.8 -2.1 1 -4 0.4 -4.4 1.5 -6 4.4 -6 1.8 0 2.5 -0.7 3 -3 0.4 -1.9 0.2 -3.6 -0.5 -4.5 -1.8 -2.2 2.1 -12.5 4.7 -12.5 0.7 0 1.7 -0.9 2.3 -2 1.4 -2.6 5 -2.6 8.6 0.1 2.9 2.1 2.9 2.1 0 -0.6 -4.2 -3.8 -2.5 -4.2 2.9 -0.5 9.1 6.3 16.4 13 15.9 14.5 -0.4 0.8 -1.4 1.5 -2.5 1.5 -3.1 0 -8.8 3.4 -9.1 5.5 -0.2 1.3 -1.2 2.1 -3 2.3 -2 0.2 -2.8 0.9 -2.8 2.3 0 1.2 -1.3 2.5 -3.5 3.6 -1.9 0.9 -3.7 2.4 -4 3.4 -0.3 0.9 -2 2.8 -3.8 4.2 -1.8 1.3 -4.3 4.5 -5.5 7.1 -3.2 6.4 -4.9 7 -9.4 3.8z"/>
  <path d="M221.2 82.3 c0.3 -3.6 0.5 -3.8 4.1 -4.1 2.7 -0.2 3.7 0.1 3.7 1.1 0 0.8 -0.9 1.7 -2.1 2 -1.3 0.4 -1.8 1 -1.4 1.7 0.8 1.3 -1.1 3 -3.3 3 -0.9 0 -1.2 -1.2 -1 -3.7z"/>
 </g>
 <g fill="#38b896">
  <path d="M92.5 94.4 c-2 -2.1 -0.6 -3.9 2.4 -2.9 2.4 0.7 2.7 1.8 0.7 3.4 -1.1 0.9 -1.8 0.8 -3.1 -0.5z"/>
  <path d="M99.4 88.8 c-0.8 -1.2 2.1 -3.8 4.3 -3.8 1.9 0 1.6 1.3 -0.7 3.3 -2.4 2 -2.7 2.1 -3.6 0.5z"/>
 </g>
 <g fill="#2fd387">
  <path d="M191.4 102.3 c-0.9 -1.5 -3.8 -4.9 -6.3 -7.6 -3.9 -4.2 -4.3 -5 -2.9 -5.8 0.9 -0.5 2.7 -3 4 -5.6 1.3 -2.5 3.7 -5.7 5.5 -7 1.8 -1.4 3.5 -3.3 3.8 -4.2 0.3 -1 2.1 -2.5 4 -3.4 2.2 -1.1 3.5 -2.4 3.5 -3.6 0 -1.4 0.8 -2.1 2.8 -2.3 1.9 -0.2 2.8 -0.9 3 -2.5 0.2 -1.3 0.8 -2.3 1.4 -2.3 0.6 0 2.7 -1.2 4.6 -2.6 2.8 -2.2 3.6 -2.4 4.3 -1.3 0.7 1.2 0.9 1.1 0.9 -0.1 0.1 -1.2 0.3 -1.2 1.4 0.2 0.7 1 1.8 1.8 2.3 1.8 1 0 5.4 4.8 12.3 13.5 3.2 4 3.2 4 -1 4.3 -3.3 0.3 -4.8 -0.2 -6.6 -1.9 -1.3 -1.2 -2.5 -2.1 -2.6 -1.8 -0.2 0.2 -0.8 1.3 -1.4 2.4 -0.6 1.1 -2.4 2.1 -4 2.3 -1.9 0.2 -3.3 1.1 -3.9 2.5 -0.7 1.5 -2.3 2.5 -5.2 3.1 -3.2 0.7 -4.4 1.5 -5.3 3.6 -0.6 1.6 -2.1 3.1 -3.3 3.5 -2 0.6 -2 0.8 -0.4 1.2 1 0.3 2.7 -0.3 3.8 -1.3 1.3 -1.1 4.1 -1.9 7.9 -2.2 5.7 -0.4 6 -0.6 6 -3.1 0 -3.9 1.8 -5.1 7.7 -5.1 3.9 0 5.3 0.4 5.3 1.4 0 2 -1.9 3 -5.2 2.8 -1.4 -0.1 -2.9 0.2 -3.3 0.8 -0.3 0.5 -0.1 1 0.4 1 4.3 0 -4.7 6 -9.6 6.5 -3.3 0.3 -8.3 3.5 -5.5 3.5 2.3 0 1.2 1.5 -2.8 3.8 -6 3.4 -7.3 3 -6.9 -2.2 0.4 -4.4 0.4 -4.4 -2.3 -2.4 -2.5 1.7 -2.8 2.6 -2.8 7.4 0 6 -0.9 6.7 -3.6 2.7z"/>
 </g>
 <g fill="#31d686">
  <path d="M192.5 103.8 c-0.2 -0.7 -0.6 -3.5 -1 -6.1 -0.6 -4.8 -0.6 -5 3.9 -9.3 2.6 -2.4 5 -4.4 5.5 -4.4 0.5 0 1.4 -1.3 2 -2.9 1 -2.2 2.2 -3 5.4 -3.7 2.9 -0.6 4.5 -1.6 5.2 -3.1 0.6 -1.4 2 -2.3 3.9 -2.5 2.1 -0.2 3.5 -1.1 4.3 -2.8 1.5 -3 5.2 -5.9 7.7 -6 1.5 0 1.6 0.2 0.6 1.5 -1.1 1.3 -0.9 2 1 4 1.3 1.4 3.3 2.5 4.4 2.5 1.2 0 2.7 0.9 3.3 2 1.1 1.7 0.8 2.2 -3 4.9 -3.1 2.1 -5 2.8 -7 2.4 -3.3 -0.6 -6 1.3 -5.2 3.8 0.8 2.4 -2.7 4.2 -8.2 4.4 -2.4 0 -4.9 0.8 -6.1 1.8 -1 0.9 -2.6 1.7 -3.4 1.7 -0.9 0 -1.9 0.7 -2.2 1.6 -0.9 2.2 -0.8 2.4 0.9 2.4 2.8 0 1.5 1.5 -4.5 5.3 -6.7 4.1 -6.9 4.2 -7.5 2.5z"/>
 </g>
 <g fill="#3ac590">
  <path d="M163 80 c0 -0.5 0.5 -1 1 -1 0.6 0 1 0.5 1 1 0 0.6 -0.4 1 -1 1 -0.5 0 -1 -0.4 -1 -1z"/>
  <path d="M175.5 28 c-0.3 -0.5 0.1 -1 0.9 -1 0.8 0 1.8 0.5 2.1 1 0.3 0.6 -0.1 1 -0.9 1 -0.8 0 -1.8 -0.4 -2.1 -1z"/>
 </g>
 <g fill="#3aca8e">
  <path d="M170.7 84.4 c-0.4 -0.4 -0.7 -1.4 -0.7 -2.3 0 -1.1 0.3 -1.2 1.1 -0.4 0.6 0.6 1 1.6 0.7 2.3 -0.2 0.6 -0.7 0.8 -1.1 0.4z"/>
  <path d="M168 82 c0 -0.7 0.3 -1 0.7 -0.7 0.3 0.4 0.3 1 0 1.4 -0.4 0.3 -0.7 0 -0.7 -0.7z"/>
  <path d="M204.6 42.3 c-3.9 -3.3 -2.6 -4 1.9 -1 2.3 1.6 3.1 2.6 2.3 3 -0.8 0.2 -2.6 -0.6 -4.2 -2z"/>
 </g>
 <g fill="#46b897">
 </g>
 <g fill="#3ccf8c">
  <path d="M219 58 c-0.6 -1.1 -1.8 -2 -2.7 -2 -1.6 0 -1.6 -0.1 0 -1.7 1.5 -1.5 1.9 -1.6 2.6 -0.4 0.7 1.1 0.9 1.1 1.3 0 0.4 -1 1.4 -0.6 3.7 1.6 3.2 3 3.2 3 0.9 3.6 -3.9 1.1 -4.7 1 -5.8 -1.1z"/>
 </g>
 <g fill="#49c994">
 </g>
</svg>